<svg width="372" height="372" viewBox="0 0 372 372" fill="none" xmlns="http://www.w3.org/2000/svg">
<rect width="372" height="372" fill="#0C0A16"/>
<path d="M90.1112 192.705V234.634L56.1111 192.705H34.5453V260.176H56.4025V218.151L90.1112 259.694L90.4026 260.176H111.968V192.705H90.1112Z" fill="white"/>
<path d="M199.863 208.416V192.705H121.728V260.176H143.585V234.344H180.031V218.537H143.585V208.416H199.863Z" fill="white"/>
<path d="M105.537 301.7C108.447 298.712 110 294.663 110 290.519V286.374C110 277.121 102.529 269.892 93.4075 269.892H34.5453V337.363H98.4532C107.38 337.074 114.463 329.748 114.463 320.881V316.254C114.463 310.182 110.97 304.591 105.537 301.7ZM84.2866 285.603C84.2866 285.603 88.1678 285.603 88.1678 290.712C88.1678 295.724 84.2866 295.724 84.2866 295.724H56.3775V285.603H84.2866ZM88.75 321.652H56.3775V311.531H88.75C88.75 311.531 92.6313 311.531 92.6313 316.543C92.6313 321.555 88.75 321.652 88.75 321.652Z" fill="white"/>
<path d="M178.031 269.892V303.627C178.031 319.628 169.201 321.652 160.759 321.652C152.415 321.652 143.585 319.628 143.585 303.627V269.892H121.753V303.627C121.753 333.604 140.383 337.363 160.759 337.363C181.233 337.363 199.863 333.604 199.863 303.627V269.892H178.031Z" fill="white"/>
<path d="M268.31 321.652H231.438V269.892H209.606V337.363H268.31V321.652Z" fill="white"/>
<path d="M336.704 321.652H299.832V269.892H278V337.363H336.704V321.652Z" fill="white"/>
<path d="M276.852 192.705H209.5V208.416H232V260.176H253.857V208.416H276.852V192.705Z" fill="white"/>
</svg>
